<svg xmlns="http://www.w3.org/2000/svg" xmlns:xlink="http://www.w3.org/1999/xlink" viewBox="0 0 1030.55 945.61"><defs><style>.cls-1{fill:#faab3d;}.cls-2{fill:#e63946;}.cls-3{fill:#262627;}.cls-4{fill:url(#linear-gradient);}.cls-5{fill:url(#linear-gradient-2);}.cls-6{fill:#118ab2;}.cls-7{fill:#06d6a0;}.cls-8{fill:url(#linear-gradient-3);}</style><linearGradient id="linear-gradient" x1="635.39" y1="201.97" x2="470.08" y2="884.52" gradientUnits="userSpaceOnUse"><stop offset="0.14" stop-color="#ef476f"/><stop offset="0.35" stop-color="#ec446f"/><stop offset="0.53" stop-color="#e1396f"/><stop offset="0.71" stop-color="#cf2770"/><stop offset="0.88" stop-color="#b60e71"/><stop offset="0.89" stop-color="#b30b71"/></linearGradient><linearGradient id="linear-gradient-2" x1="1070.37" y1="296.07" x2="429.59" y2="628.66" gradientUnits="userSpaceOnUse"><stop offset="0.14" stop-color="#06d6a0"/><stop offset="0.34" stop-color="#06d3a0"/><stop offset="0.49" stop-color="#06c9a0"/><stop offset="0.62" stop-color="#06b9a0"/><stop offset="0.75" stop-color="#06a3a0"/><stop offset="0.84" stop-color="#068ca0"/></linearGradient><linearGradient id="linear-gradient-3" x1="82.85" y1="699.11" x2="337.03" y2="433.72" gradientUnits="userSpaceOnUse"><stop offset="0.14" stop-color="#118ab2"/><stop offset="0.34" stop-color="#1187b1"/><stop offset="0.49" stop-color="#117daf"/><stop offset="0.63" stop-color="#116dac"/><stop offset="0.75" stop-color="#1157a7"/><stop offset="0.87" stop-color="#1139a1"/><stop offset="0.88" stop-color="#1138a1"/></linearGradient></defs><g id="Layer_2" data-name="Layer 2"><g id="Layer_1-2" data-name="Layer 1"><path class="cls-1" d="M376.58,642.32l280,297.31a19.07,19.07,0,0,0,27.91-.18c30-32.52,68.51-80.78,95.5-110.63a19,19,0,0,0-6.83-30.39C662.43,752.53,376.58,642.32,376.58,642.32Z"/><path class="cls-2" d="M413.33,91.8l87.9-86.3c12.07-11.84,32.44-3.3,32.44,13.61V196.87a9.53,9.53,0,0,1-16.34,6.68L413.2,105.29A9.54,9.54,0,0,1,413.33,91.8Z"/><path class="cls-3" d="M405,160.55V558.12a9.54,9.54,0,0,0,16.2,6.82L627.82,363.21a9.54,9.54,0,0,0-.11-13.75L421.06,153.63A9.54,9.54,0,0,0,405,160.55Z"/><path class="cls-4" d="M654.63,381.67v369.1l-278-108.45S645.36,387.4,647.14,386.05,649.59,383.5,654.63,381.67Z"/><path class="cls-5" d="M654.63,642,894.37,407.68a30.82,30.82,0,0,0-9.67-2.81c-5.79-.75-222.4-23.94-222.4-23.94a19.64,19.64,0,0,0-4.23,0,32.33,32.33,0,0,0-3.44.72Z"/><path class="cls-6" d="M654.63,642l360.83-79.21s9.75-2.24,13.78-12-2.3-18-4.68-20.45S901.78,412.65,899.37,410.81a37.09,37.09,0,0,0-5-3.13Z"/><path class="cls-7" d="M375.93,642,136.19,407.68a30.7,30.7,0,0,1,9.67-2.81c5.78-.75,222.4-23.94,222.4-23.94a19.56,19.56,0,0,1,4.22,0,31.66,31.66,0,0,1,3.44.72Z"/><path class="cls-8" d="M375.93,642,15.09,562.83s-9.74-2.24-13.78-12,2.3-18,4.68-20.45,122.78-117.77,125.2-119.61a37.09,37.09,0,0,1,5-3.13Z"/></g></g></svg>