<svg width="24" height="24" viewBox="0 0 24 24" fill="none" xmlns="http://www.w3.org/2000/svg">
<g opacity="0.8">
<path d="M4.45712 22.9577C9.45808 23.7029 14.5419 23.7029 19.5428 22.9577C21.3349 22.6765 23.1499 20.8755 23.4396 19.083C24.1868 14.2284 24.1868 9.28813 23.4396 4.43357C23.1499 2.64146 21.3349 0.840114 19.5428 0.558905C14.5419 -0.186301 9.45808 -0.186301 4.45712 0.558905C2.66501 0.840114 0.849998 2.64146 0.560351 4.43357C-0.186784 9.28787 -0.186784 14.2279 0.560351 19.0822C0.848391 20.8755 2.663 22.6769 4.45712 22.9577Z" fill="#F44653"/>
<path d="M12.0713 12.7891H12.042C10.9131 12.7891 9.80675 13.2848 8.92536 14.1843C7.96121 15.1689 7.29234 16.5946 6.99144 18.3044C6.96677 18.4432 6.97284 18.5857 7.00921 18.7219C7.04559 18.8581 7.11138 18.9847 7.20197 19.0927C7.29255 19.2007 7.40572 19.2875 7.5335 19.3471C7.66128 19.4066 7.80056 19.4374 7.94153 19.4373L16.0564 19.4437C16.1973 19.4439 16.3365 19.4133 16.4643 19.354C16.592 19.2946 16.7052 19.208 16.7959 19.1002C16.8866 18.9924 16.9526 18.866 16.9892 18.73C17.0258 18.594 17.0321 18.4516 17.0077 18.3128C16.4397 14.9769 14.5009 12.8087 12.0713 12.7891Z" fill="#0A0A0A" fill-opacity="0.6"/>
<path d="M9.4955 8.37324C9.4955 7.24398 9.07972 6.54297 8.41084 6.54297C7.74196 6.54297 7.32617 7.24398 7.32617 8.37324C7.32617 9.5025 7.74156 10.2031 8.41084 10.2031C9.08012 10.2031 9.4955 9.5021 9.4955 8.37324Z" fill="#0A0A0A" fill-opacity="0.6"/>
<path d="M15.5866 6.54297C14.9173 6.54297 14.502 7.24398 14.502 8.37324C14.502 9.5025 14.9177 10.2031 15.5866 10.2031C16.2555 10.2031 16.6713 9.5021 16.6713 8.37324C16.6713 7.24439 16.2559 6.54297 15.5866 6.54297Z" fill="#0A0A0A" fill-opacity="0.6"/>
</g>
</svg>
