<svg width="24" height="24" viewBox="0 0 24 24" fill="none" xmlns="http://www.w3.org/2000/svg">
<g opacity="0.8">
<path d="M4.45712 22.9577C9.45808 23.7029 14.5419 23.7029 19.5428 22.9577C21.3349 22.6765 23.1499 20.8751 23.4396 19.083C24.1868 14.2284 24.1868 9.28813 23.4396 4.43357C23.1499 2.64146 21.3349 0.839713 19.5428 0.558905C14.5419 -0.186301 9.45808 -0.186301 4.45712 0.558905C2.66501 0.840114 0.849998 2.64146 0.560351 4.43357C-0.186784 9.28787 -0.186784 14.2279 0.560351 19.0822C0.847989 20.8755 2.6634 22.6769 4.45712 22.9577Z" fill="#FAAB3D"/>
<path d="M17.5002 13.9258H6.49609V15.4074H17.5002V13.9258Z" fill="#0A0A0A" fill-opacity="0.6"/>
<path d="M8.40889 10.2035C9.00793 10.2035 9.49355 9.38408 9.49355 8.37324C9.49355 7.36241 9.00793 6.54297 8.40889 6.54297C7.80984 6.54297 7.32422 7.36241 7.32422 8.37324C7.32422 9.38408 7.80984 10.2035 8.40889 10.2035Z" fill="#0A0A0A" fill-opacity="0.6"/>
<path d="M15.5866 10.2035C16.1857 10.2035 16.6713 9.38408 16.6713 8.37324C16.6713 7.36241 16.1857 6.54297 15.5866 6.54297C14.9876 6.54297 14.502 7.36241 14.502 8.37324C14.502 9.38408 14.9876 10.2035 15.5866 10.2035Z" fill="#0A0A0A" fill-opacity="0.6"/>
</g>
</svg>
