<svg width="24" height="24" viewBox="0 0 24 24" fill="none" xmlns="http://www.w3.org/2000/svg">
<g opacity="0.8">
<path d="M4.45712 22.9577C9.45808 23.7029 14.5419 23.7029 19.5428 22.9577C21.3349 22.6765 23.1499 20.8751 23.4396 19.083C24.1868 14.2284 24.1868 9.28813 23.4396 4.43357C23.1499 2.64146 21.3349 0.840114 19.5428 0.558905C14.5419 -0.186301 9.45808 -0.186301 4.45712 0.558905C2.66541 0.840114 0.849998 2.64146 0.560351 4.43357C-0.186784 9.28787 -0.186784 14.2279 0.560351 19.0822C0.847989 20.8755 2.663 22.6769 4.45712 22.9577Z" fill="#06D6A0"/>
<path d="M16.125 12.8157C15.8875 13.5573 15.352 14.1792 14.5763 14.6143C13.8355 15.0289 12.9011 15.257 11.9442 15.257H11.9225C10.9832 15.253 10.0745 15.0248 9.36427 14.6143C8.62147 14.186 8.10686 13.5658 7.87546 12.8202L7.67661 12.1802L6.26172 12.6189L6.46258 13.2596C7.11419 15.3607 9.2562 16.7258 11.9205 16.7374H11.9514C13.1546 16.7374 14.3445 16.4417 15.3026 15.905C16.4114 15.2836 17.1843 14.3708 17.5382 13.2665L17.7431 12.6273L16.331 12.1758L16.125 12.8157Z" fill="#0A0A0A" fill-opacity="0.6"/>
<path d="M8.40889 10.207C9.07816 10.207 9.49355 9.50601 9.49355 8.37715C9.49355 7.24829 9.07776 6.54688 8.40889 6.54688C7.74001 6.54688 7.32422 7.24789 7.32422 8.37715C7.32422 9.50641 7.74001 10.207 8.40889 10.207Z" fill="#0A0A0A" fill-opacity="0.6"/>
<path d="M15.5866 10.207C16.2559 10.207 16.6713 9.50601 16.6713 8.37715C16.6713 7.24829 16.2555 6.54688 15.5866 6.54688C14.9177 6.54688 14.502 7.24789 14.502 8.37715C14.502 9.50641 14.9173 10.207 15.5866 10.207Z" fill="#0A0A0A" fill-opacity="0.6"/>
</g>
</svg>
