<svg width="24" height="24" viewBox="0 0 24 24" fill="none" xmlns="http://www.w3.org/2000/svg">
<g opacity="0.8">
<path d="M4.45712 22.9577C9.45808 23.7029 14.5419 23.7029 19.5428 22.9577C21.3349 22.6765 23.1499 20.8751 23.4396 19.083C24.1868 14.2284 24.1868 9.28813 23.4396 4.43357C23.1499 2.64146 21.3349 0.839713 19.5428 0.558905C14.5419 -0.186301 9.45808 -0.186301 4.45712 0.558905C2.66541 0.840114 0.849998 2.64146 0.560351 4.43357C-0.186784 9.28787 -0.186784 14.2279 0.560351 19.0822C0.847989 20.8755 2.6634 22.6769 4.45712 22.9577Z" fill="#15AEE1"/>
<path d="M16.6423 13.5443L7.34867 13.5391C7.26018 13.5407 7.17349 13.5643 7.09637 13.6077C7.01924 13.6511 6.95409 13.713 6.90677 13.7877C6.85548 13.8679 6.82179 13.958 6.80794 14.0521C6.79409 14.1462 6.80039 14.2422 6.82642 14.3337C7.43504 16.5199 9.43364 17.94 11.9191 17.9524H11.9493C13.0717 17.9524 14.1821 17.6447 15.0759 17.0863C16.1112 16.4399 16.8331 15.4903 17.1649 14.3401C17.1911 14.2486 17.1975 14.1526 17.1837 14.0585C17.1698 13.9643 17.136 13.8742 17.0846 13.7942C17.0374 13.719 16.9723 13.6568 16.8951 13.6131C16.8178 13.5695 16.7309 13.5458 16.6423 13.5443V13.5443Z" fill="#0A0A0A" fill-opacity="0.6"/>
<path d="M8.40889 10.207C9.07816 10.207 9.49355 9.50601 9.49355 8.37715C9.49355 7.24829 9.07776 6.54688 8.40889 6.54688C7.74001 6.54688 7.32422 7.24789 7.32422 8.37715C7.32422 9.50641 7.73961 10.207 8.40889 10.207Z" fill="#0A0A0A" fill-opacity="0.6"/>
<path d="M15.5847 10.207C16.2539 10.207 16.6693 9.50601 16.6693 8.37715C16.6693 7.24829 16.2539 6.54688 15.5847 6.54688C14.9154 6.54688 14.5 7.24789 14.5 8.37715C14.5 9.50641 14.9154 10.207 15.5847 10.207Z" fill="#0A0A0A" fill-opacity="0.6"/>
</g>
</svg>
