<svg xmlns="http://www.w3.org/2000/svg" width="3.75in" height="2.25in" viewBox="0 0 1125 675">
  <title>QR Simplified business card back</title>
  <desc>Editable Canva-ready business card back with bleed area. Trim size is 3.5 by 2 inches centered inside this 3.75 by 2.25 inch artboard.</desc>
  <defs>
    <linearGradient id="backBg" x1="0" y1="0" x2="1125" y2="675" gradientUnits="userSpaceOnUse">
      <stop offset="0" stop-color="#f8fafc"/>
      <stop offset="1" stop-color="#e6fffb"/>
    </linearGradient>
    <linearGradient id="brandAccent" x1="0" y1="0" x2="1" y2="1">
      <stop offset="0" stop-color="#0f766e"/>
      <stop offset="1" stop-color="#0284c7"/>
    </linearGradient>
  </defs>

  <rect width="1125" height="675" fill="url(#backBg)"/>
  <path d="M-24 542 C166 467 271 502 422 558 C596 623 758 645 1125 521 L1125 675 L-24 675 Z" fill="#d9fbf2"/>
  <path d="M835 -48 C946 58 978 182 1125 204 L1125 0 Z" fill="#ccfbf1"/>
  <path d="M0 0 L1125 0 L1125 28 L0 28 Z" fill="url(#brandAccent)"/>

  <g transform="translate(424 168)">
    <rect x="0" y="0" width="278" height="278" rx="42" fill="#0b1020"/>
    <g transform="translate(56 56)" fill="#f8fafc">
      <rect x="0" y="0" width="70" height="70" rx="7"/>
      <rect x="96" y="0" width="70" height="70" rx="7"/>
      <rect x="0" y="96" width="70" height="70" rx="7"/>
      <rect x="96" y="96" width="30" height="30" rx="5"/>
      <rect x="136" y="126" width="30" height="40" rx="5"/>
      <rect x="96" y="146" width="30" height="20" rx="5"/>
      <rect x="126" y="78" width="40" height="30" rx="5"/>
      <rect x="26" y="26" width="18" height="18" rx="2" fill="#0b1020"/>
      <rect x="122" y="26" width="18" height="18" rx="2" fill="#0b1020"/>
      <rect x="26" y="122" width="18" height="18" rx="2" fill="#0b1020"/>
    </g>
  </g>

  <text x="562.5" y="504" text-anchor="middle" font-family="Montserrat, Arial, sans-serif" font-size="34" font-weight="700" fill="#0b1020" letter-spacing="2">QR SIMPLIFIED</text>
  <text x="562.5" y="548" text-anchor="middle" font-family="Montserrat, Arial, sans-serif" font-size="22" font-weight="500" fill="#0f766e">Scan. Share. Simplify.</text>
  <rect x="402.5" y="576" width="320" height="4" rx="2" fill="url(#brandAccent)"/>

  <rect x="37.5" y="37.5" width="1050" height="600" fill="none" stroke="#0b1020" stroke-width="1" opacity="0.12" stroke-dasharray="10 10"/>
</svg>
